<svg width="40" height="40" viewBox="0 0 40 40" fill="none" xmlns="http://www.w3.org/2000/svg">
<g clip-path="url(#clip0_420_432)">
<path d="M19.9999 39.8122C14.7453 39.8122 9.70595 37.7249 5.99041 34.0093C2.27487 30.2938 0.1875 25.2544 0.1875 19.9999V19.9999C0.1875 14.7453 2.27487 9.70595 5.99041 5.99041C9.70595 2.27487 14.7453 0.1875 19.9999 0.1875V0.1875C25.2544 0.1875 30.2938 2.27487 34.0093 5.99041C37.7249 9.70595 39.8122 14.7453 39.8122 19.9999V19.9999C39.8122 22.6017 39.2998 25.178 38.3041 27.5817C37.3084 29.9855 35.8491 32.1696 34.0093 34.0093C32.1696 35.8491 29.9855 37.3084 27.5817 38.3041C25.178 39.2998 22.6017 39.8122 19.9999 39.8122V39.8122Z" stroke="white" stroke-width="0.43" stroke-miterlimit="10"/>
<path d="M17.3212 30.6183H21.5856V19.9061H24.5621L24.8862 16.324H21.5856V14.2857C21.5856 13.4328 21.7476 13.1087 22.5664 13.1087H24.8862V9.39014H21.9182C18.737 9.39014 17.3041 10.7889 17.3041 13.4669V16.3326H15.0781V19.9573H17.3041L17.3212 30.6183Z" fill="white"/>
</g>
<defs>
<clipPath id="clip0_420_432">
<rect width="40" height="40" fill="white"/>
</clipPath>
</defs>
</svg>
