<svg width="39" height="40" viewBox="0 0 39 40" fill="none" xmlns="http://www.w3.org/2000/svg">
<g clip-path="url(#clip0_420_435)">
<path d="M19.5339 39.8125C14.4099 39.8102 9.49654 37.7209 5.87413 34.0041C2.25172 30.2872 0.216796 25.2469 0.216797 19.9916V19.9916C0.216797 14.737 2.25198 9.69765 5.87463 5.98211C9.49728 2.26657 14.4107 0.179201 19.5339 0.179201C22.0713 0.178081 24.5841 0.689719 26.9287 1.68488C29.2733 2.68005 31.4038 4.13923 33.1985 5.97909C34.9931 7.81895 36.4167 10.0034 37.388 12.4077C38.3593 14.812 38.8592 17.3891 38.8592 19.9916V19.9916C38.8592 25.2484 36.8232 30.2899 33.199 34.0071C29.5747 37.7242 24.6593 39.8125 19.5339 39.8125V39.8125Z" stroke="white" stroke-width="0.43" stroke-miterlimit="10"/>
<path d="M19.5328 12.0939C22.0275 12.0939 22.3435 12.0939 23.333 12.1536C23.9296 12.159 24.5206 12.2716 25.0793 12.4863C25.4845 12.64 25.8511 12.8847 26.152 13.2027C26.463 13.5155 26.7042 13.8937 26.8588 14.3114C27.064 14.8856 27.1736 15.491 27.1831 16.1025C27.1831 17.1174 27.233 17.4244 27.233 19.9916C27.233 22.5588 27.233 22.8743 27.1831 23.8893C27.1736 24.5007 27.064 25.1061 26.8588 25.6803C26.6982 26.0923 26.4577 26.4665 26.1518 26.7803C25.8459 27.094 25.481 27.3407 25.0793 27.5055C24.5195 27.7159 23.9292 27.8283 23.333 27.8381C22.3435 27.8381 22.0441 27.8893 19.5328 27.8893C17.0215 27.8893 16.7305 27.8893 15.7409 27.8381C15.1448 27.8283 14.5544 27.7159 13.9946 27.5055C13.5929 27.3407 13.2281 27.094 12.9222 26.7803C12.6163 26.4665 12.3757 26.0923 12.2151 25.6803C12.0099 25.1061 11.9003 24.5007 11.8908 23.8893C11.8492 22.8743 11.8409 22.5673 11.8409 19.9916C11.8409 17.4159 11.8409 17.1174 11.8908 16.1025C11.9003 15.491 12.0099 14.8856 12.2151 14.3114C12.3697 13.8937 12.6109 13.5155 12.9219 13.2027C13.2229 12.8847 13.5894 12.64 13.9946 12.4863C14.5533 12.2716 15.1443 12.159 15.7409 12.1536C16.7305 12.1536 17.0298 12.0939 19.5328 12.0939ZM19.5328 10.3882C16.9882 10.3882 16.6639 10.3882 15.6661 10.4479C14.8874 10.4607 14.1167 10.6107 13.3876 10.8914C12.7643 11.1427 12.1982 11.5231 11.7246 12.0088C11.251 12.4945 10.8802 13.0751 10.6352 13.7144C10.3607 14.462 10.2144 15.2526 10.2027 16.0513C10.1528 17.0748 10.1445 17.4074 10.1445 20.0172C10.1445 22.627 10.1445 22.9681 10.2027 23.9916C10.2152 24.7902 10.3615 25.5807 10.6352 26.3285C10.8802 26.9678 11.251 27.5484 11.7246 28.0341C12.1982 28.5198 12.7643 28.9002 13.3876 29.1515C14.1178 29.4281 14.8878 29.5779 15.6661 29.595C16.6639 29.6462 16.9882 29.6547 19.5328 29.6547C22.0774 29.6547 22.41 29.6547 23.4079 29.595C24.1861 29.5779 24.9561 29.4281 25.6863 29.1515C26.3096 28.9002 26.8757 28.5198 27.3493 28.0341C27.8229 27.5484 28.1938 26.9678 28.4388 26.3285C28.7124 25.5807 28.8587 24.7902 28.8712 23.9916C28.9211 22.9681 28.9294 22.6355 28.9294 20.0172C28.9294 17.3989 28.9294 17.0748 28.8712 16.0513C28.8595 15.2526 28.7132 14.462 28.4388 13.7144C28.1938 13.0751 27.8229 12.4945 27.3493 12.0088C26.8757 11.5231 26.3096 11.1427 25.6863 10.8914C24.9572 10.6107 24.1865 10.4607 23.4079 10.4479C22.41 10.3967 22.0857 10.3882 19.5328 10.3882Z" fill="white"/>
<path d="M19.534 15.0449C18.5801 15.0449 17.6476 15.335 16.8544 15.8786C16.0613 16.4221 15.4431 17.1947 15.0781 18.0986C14.713 19.0025 14.6175 19.9971 14.8036 20.9567C14.9897 21.9162 15.4491 22.7976 16.1236 23.4895C16.7981 24.1813 17.6575 24.6524 18.593 24.8433C19.5286 25.0341 20.4984 24.9362 21.3797 24.5618C22.261 24.1874 23.0142 23.5533 23.5442 22.7399C24.0741 21.9264 24.357 20.97 24.357 19.9916C24.357 18.6797 23.8489 17.4215 22.9444 16.4938C22.0399 15.5661 20.8131 15.0449 19.534 15.0449M19.534 23.207C18.9139 23.207 18.3078 23.0184 17.7923 22.6651C17.2767 22.3118 16.8749 21.8096 16.6376 21.2221C16.4004 20.6345 16.3383 19.988 16.4592 19.3643C16.5802 18.7406 16.8788 18.1677 17.3172 17.718C17.7556 17.2683 18.3142 16.9621 18.9224 16.838C19.5305 16.714 20.1608 16.7777 20.7337 17.021C21.3065 17.2644 21.7961 17.6765 22.1406 18.2053C22.4851 18.734 22.6689 19.3557 22.6689 19.9916C22.6689 20.4139 22.5878 20.832 22.4303 21.2221C22.2728 21.6122 22.0418 21.9666 21.7507 22.2652C21.4596 22.5638 21.114 22.8006 20.7337 22.9622C20.3533 23.1238 19.9457 23.207 19.534 23.207" fill="white"/>
<path d="M25.6368 14.8573C25.6368 15.0874 25.57 15.3124 25.445 15.5035C25.32 15.6946 25.1424 15.8432 24.9348 15.9305C24.7272 16.0177 24.4989 16.0397 24.2791 15.9935C24.0593 15.9474 23.8578 15.8352 23.7003 15.6713C23.5429 15.5073 23.4365 15.2991 23.3947 15.073C23.353 14.8468 23.3778 14.6131 23.4659 14.4015C23.5541 14.1899 23.7016 14.0099 23.8898 13.8845C24.0779 13.7591 24.2982 13.694 24.5225 13.6974C24.8225 13.6974 25.1101 13.8196 25.3222 14.0371C25.5343 14.2546 25.6535 14.5497 25.6535 14.8573" fill="white"/>
</g>
<defs>
<clipPath id="clip0_420_435">
<rect width="39" height="40" fill="white"/>
</clipPath>
</defs>
</svg>
