<svg width="40" height="40" viewBox="0 0 40 40" fill="none" xmlns="http://www.w3.org/2000/svg">
<g clip-path="url(#clip0_420_440)">
<path d="M20.0006 39.8122C17.3981 39.8133 14.8208 39.3017 12.4161 38.3065C10.0114 37.3114 7.82625 35.8522 5.9856 34.0124C4.14495 32.1725 2.68482 29.988 1.68862 27.5837C0.692424 25.1794 0.179687 22.6024 0.179688 19.9999V19.9999C0.179687 17.3974 0.692424 14.8203 1.68862 12.416C2.68482 10.0117 4.14495 7.82726 5.9856 5.9874C7.82625 4.14754 10.0114 2.68835 12.4161 1.69318C14.8208 0.69802 17.3981 0.186382 20.0006 0.187502C22.6024 0.187502 25.1787 0.699965 27.5824 1.69563C29.9862 2.69129 32.1703 4.15065 34.0101 5.9904C35.8498 7.83014 37.3092 10.0143 38.3048 12.418C39.3005 14.8218 39.813 17.3981 39.813 19.9999V19.9999C39.813 25.2544 37.7256 30.2938 34.0101 34.0093C30.2945 37.7249 25.2551 39.8122 20.0006 39.8122V39.8122Z" stroke="white" stroke-width="0.43" stroke-miterlimit="10"/>
<path d="M15.1723 16.0684H11.5391V27.8125H15.1723V16.0684Z" fill="white"/>
<path d="M13.3387 14.4991C13.7679 14.5024 14.1884 14.3783 14.5469 14.1423C14.9054 13.9063 15.1857 13.5692 15.3522 13.1737C15.5188 12.7781 15.5642 12.342 15.4825 11.9207C15.4009 11.4993 15.1959 11.1117 14.8936 10.8071C14.5914 10.5024 14.2054 10.2944 13.7847 10.2094C13.364 10.1244 12.9276 10.1663 12.5308 10.3298C12.1339 10.4932 11.7946 10.7708 11.5558 11.1275C11.317 11.4841 11.1895 11.9036 11.1895 12.3327C11.1883 12.6161 11.243 12.8969 11.3505 13.1592C11.4579 13.4214 11.6159 13.6599 11.8154 13.861C12.015 14.0622 12.2523 14.2221 12.5136 14.3315C12.775 14.441 13.0553 14.4979 13.3387 14.4991Z" fill="white"/>
<path d="M20.9895 21.6548C20.9895 20.0002 21.7486 19.0193 23.207 19.0193C24.6654 19.0193 25.1857 19.9661 25.1857 21.6548V27.8211H28.8019V20.384C28.8019 17.2368 27.0194 15.7187 24.5375 15.7187C23.8306 15.7083 23.133 15.8812 22.5127 16.2205C21.8924 16.5597 21.3706 17.0539 20.998 17.6548V16.0769H17.5098V27.8211H20.998L20.9895 21.6548Z" fill="white"/>
</g>
<defs>
<clipPath id="clip0_420_440">
<rect width="40" height="40" fill="white"/>
</clipPath>
</defs>
</svg>
