<svg width="116" height="152" viewBox="0 0 116 152" fill="none" xmlns="http://www.w3.org/2000/svg">
<path d="M42.4123 70.96C37.0363 70.96 32.2363 69.616 28.0123 66.928C23.7883 64.176 20.4603 60.208 18.0283 55.024C15.5963 49.776 14.3803 43.568 14.3803 36.4C14.3803 29.232 15.5963 23.056 18.0283 17.872C20.4603 12.624 23.7883 8.656 28.0123 5.96799C32.2363 3.216 37.0363 1.84 42.4123 1.84C47.7883 1.84 52.5883 3.216 56.8123 5.96799C61.1003 8.656 64.4603 12.624 66.8923 17.872C69.3243 23.056 70.5403 29.232 70.5403 36.4C70.5403 43.568 69.3243 49.776 66.8923 55.024C64.4603 60.208 61.1003 64.176 56.8123 66.928C52.5883 69.616 47.7883 70.96 42.4123 70.96ZM42.4123 60.112C47.2123 60.112 50.9883 58.128 53.7403 54.16C56.5563 50.192 57.9643 44.272 57.9643 36.4C57.9643 28.528 56.5563 22.608 53.7403 18.64C50.9883 14.672 47.2123 12.688 42.4123 12.688C37.6763 12.688 33.9003 14.672 31.0843 18.64C28.3323 22.608 26.9563 28.528 26.9563 36.4C26.9563 44.272 28.3323 50.192 31.0843 54.16C33.9003 58.128 37.6763 60.112 42.4123 60.112ZM101.737 2.8V70H89.2573V13.264H75.0493V2.8H101.737Z" fill="white" fill-opacity="0.03"/>
<path d="M9.66732 89.1666L19.5757 89.65C20.1612 84.3596 21.8382 79.2484 24.5004 74.6394C27.1627 70.0304 30.7523 66.0239 35.0423 62.8733L29.629 54.56C28.324 52.24 29.0007 49.2916 31.4173 47.9383C33.834 46.6333 36.6857 47.4066 38.039 49.7266L42.534 58.5233C47.4199 56.4228 52.6824 55.3395 58.0007 55.3395C63.3189 55.3395 68.5814 56.4228 73.4673 58.5233L77.9623 49.7266C79.3156 47.4066 82.1673 46.6333 84.584 47.9383C87.0007 49.2916 87.6773 52.24 86.3723 54.56L80.959 62.8733C85.249 66.0239 88.8386 70.0304 91.5009 74.6394C94.1631 79.2484 95.8401 84.3596 96.4257 89.65L106.334 89.1666C107.616 89.1666 108.845 89.6759 109.752 90.5823C110.658 91.4887 111.167 92.7181 111.167 94C111.167 95.2819 110.658 96.5112 109.752 97.4177C108.845 98.3241 107.616 98.8333 106.334 98.8333L96.4257 98.35C95.8401 103.64 94.1631 108.752 91.5009 113.361C88.8386 117.97 85.249 121.976 80.959 125.127L86.3723 133.44C87.6773 135.76 87.0007 138.708 84.584 140.062C82.1673 141.367 79.3156 140.593 77.9623 138.273L73.4673 129.477C68.5814 131.577 63.3189 132.66 58.0007 132.66C52.6824 132.66 47.4199 131.577 42.534 129.477L38.039 138.273C36.6857 140.593 33.834 141.367 31.4173 140.062C29.0007 138.708 28.324 135.76 29.629 133.44L35.0423 125.127C30.7523 121.976 27.1627 117.97 24.5004 113.361C21.8382 108.752 20.1612 103.64 19.5757 98.35L9.66732 98.8333C8.38544 98.8333 7.15606 98.3241 6.24963 97.4177C5.34321 96.5112 4.83398 95.2819 4.83398 94C4.83398 92.7181 5.34321 91.4887 6.24963 90.5823C7.15606 89.6759 8.38544 89.1666 9.66732 89.1666ZM43.839 90.8583C44.4673 87.91 46.0623 85.3 48.334 83.3183L40.3107 71.0416C34.2466 75.6958 30.2681 82.5582 29.2423 90.1333L43.839 90.8583ZM58.0007 79.5C59.5473 79.5 60.9973 79.7416 62.3507 80.1766L69.0207 67.175C65.6373 65.7733 61.9157 65 58.0007 65C54.0857 65 50.364 65.7733 46.9807 67.175L53.6507 80.1766C55.004 79.7416 56.454 79.5 58.0007 79.5ZM72.1623 90.8583L86.759 90.1333C85.7332 82.5582 81.7547 75.6958 75.6907 71.0416L67.6673 83.3183C69.939 85.3 71.534 87.91 72.1623 90.8583ZM72.1623 97.1416C71.534 100.09 69.939 102.7 67.6673 104.682L75.6907 116.958C81.7547 112.304 85.7332 105.442 86.759 97.8666L72.1623 97.1416ZM58.0007 108.5C56.454 108.5 55.004 108.258 53.6023 107.823L46.9807 120.825C50.364 122.227 54.0857 123 58.0007 123C61.9157 123 65.6373 122.227 69.0207 120.825L62.399 107.823C60.9973 108.258 59.5473 108.5 58.0007 108.5ZM43.839 97.1416L29.2423 97.8666C30.3057 105.6 34.3657 112.415 40.3107 116.958L48.334 104.682C46.0623 102.7 44.4673 100.09 43.839 97.1416Z" fill="#FFE27C"/>
</svg>
