<svg width="122" height="152" viewBox="0 0 122 152" fill="none" xmlns="http://www.w3.org/2000/svg">
<path d="M32.256 70.96C26.88 70.96 22.08 69.616 17.856 66.928C13.632 64.176 10.304 60.208 7.872 55.024C5.44 49.776 4.224 43.568 4.224 36.4C4.224 29.232 5.44 23.056 7.872 17.872C10.304 12.624 13.632 8.656 17.856 5.96799C22.08 3.216 26.88 1.84 32.256 1.84C37.632 1.84 42.432 3.216 46.656 5.96799C50.944 8.656 54.304 12.624 56.736 17.872C59.168 23.056 60.384 29.232 60.384 36.4C60.384 43.568 59.168 49.776 56.736 55.024C54.304 60.208 50.944 64.176 46.656 66.928C42.432 69.616 37.632 70.96 32.256 70.96ZM32.256 60.112C37.056 60.112 40.832 58.128 43.584 54.16C46.4 50.192 47.808 44.272 47.808 36.4C47.808 28.528 46.4 22.608 43.584 18.64C40.832 14.672 37.056 12.688 32.256 12.688C27.52 12.688 23.744 14.672 20.928 18.64C18.176 22.608 16.8 28.528 16.8 36.4C16.8 44.272 18.176 50.192 20.928 54.16C23.744 58.128 27.52 60.112 32.256 60.112ZM117.021 59.44V70H67.485V61.648L94.173 36.304C97.181 33.424 99.197 30.928 100.221 28.816C101.309 26.64 101.853 24.496 101.853 22.384C101.853 19.248 100.797 16.848 98.685 15.184C96.573 13.52 93.469 12.688 89.373 12.688C82.525 12.688 77.277 15.024 73.629 19.696L64.893 12.976C67.517 9.456 71.037 6.736 75.453 4.816C79.933 2.832 84.925 1.84 90.429 1.84C97.725 1.84 103.549 3.568 107.901 7.024C112.253 10.48 114.429 15.184 114.429 21.136C114.429 24.784 113.661 28.208 112.125 31.408C110.589 34.608 107.645 38.256 103.293 42.352L85.341 59.44H117.021Z" fill="white" fill-opacity="0.03"/>
<path d="M31.7619 51.8098C34.7782 50.7338 38.0379 50.536 41.1621 51.2395C44.2863 51.943 47.1466 53.5188 49.4106 55.7837C51.6745 58.0487 53.2491 60.9098 53.9511 64.0343C54.6532 67.1588 54.454 70.4184 53.3766 73.4342L105.794 125.852L95.5378 136.103L43.1203 83.6905C40.104 84.7665 36.8443 84.9643 33.7201 84.2608C30.5959 83.5573 27.7356 81.9815 25.4716 79.7166C23.2077 77.4516 21.6331 74.5906 20.9311 71.466C20.229 68.3415 20.4282 65.0819 21.5056 62.0662L32.3129 72.8783C32.9817 73.5708 33.7817 74.1231 34.6663 74.5031C35.5508 74.883 36.5021 75.083 37.4648 75.0914C38.4274 75.0998 39.3821 74.9163 40.2731 74.5518C41.1641 74.1872 41.9736 73.6489 42.6543 72.9682C43.335 72.2875 43.8734 71.478 44.2379 70.587C44.6024 69.696 44.7859 68.7413 44.7775 67.7787C44.7691 66.816 44.5691 65.8647 44.1892 64.9801C43.8092 64.0956 43.2569 63.2956 42.5644 62.6268L31.7571 51.805L31.7619 51.8098ZM81.8691 60.9158L97.2488 52.3705L104.083 59.2048L95.5378 74.5845L86.9924 76.2955L76.7458 86.547L69.9066 79.7127L80.1581 69.4612L81.8691 60.9158ZM47.6926 98.5095L57.9441 108.766L34.0191 132.691C32.6998 133.998 30.9292 134.749 29.0726 134.789C27.2159 134.828 25.4147 134.154 24.0405 132.905C22.6662 131.656 21.8236 129.928 21.6865 128.075C21.5494 126.223 22.1282 124.389 23.3036 122.952L23.7724 122.434L47.6926 98.5095Z" fill="#FFE27C"/>
</svg>
