<svg width="120" height="152" viewBox="0 0 120 152" fill="none" xmlns="http://www.w3.org/2000/svg">
<path d="M32.4904 70.96C27.1144 70.96 22.3144 69.616 18.0904 66.928C13.8664 64.176 10.5384 60.208 8.10638 55.024C5.67438 49.776 4.45838 43.568 4.45838 36.4C4.45838 29.232 5.67438 23.056 8.10638 17.872C10.5384 12.624 13.8664 8.656 18.0904 5.96799C22.3144 3.216 27.1144 1.84 32.4904 1.84C37.8664 1.84 42.6664 3.216 46.8904 5.96799C51.1784 8.656 54.5384 12.624 56.9704 17.872C59.4024 23.056 60.6184 29.232 60.6184 36.4C60.6184 43.568 59.4024 49.776 56.9704 55.024C54.5384 60.208 51.1784 64.176 46.8904 66.928C42.6664 69.616 37.8664 70.96 32.4904 70.96ZM32.4904 60.112C37.2904 60.112 41.0664 58.128 43.8184 54.16C46.6344 50.192 48.0424 44.272 48.0424 36.4C48.0424 28.528 46.6344 22.608 43.8184 18.64C41.0664 14.672 37.2904 12.688 32.4904 12.688C27.7544 12.688 23.9784 14.672 21.1624 18.64C18.4104 22.608 17.0344 28.528 17.0344 36.4C17.0344 44.272 18.4104 50.192 21.1624 54.16C23.9784 58.128 27.7544 60.112 32.4904 60.112ZM96.7226 30.544C102.931 31.312 107.667 33.424 110.931 36.88C114.195 40.336 115.827 44.656 115.827 49.84C115.827 53.744 114.835 57.296 112.851 60.496C110.867 63.696 107.859 66.256 103.827 68.176C99.8586 70.032 94.9946 70.96 89.2346 70.96C84.4346 70.96 79.7946 70.288 75.3146 68.944C70.8986 67.536 67.1226 65.616 63.9866 63.184L69.3626 53.488C71.7946 55.536 74.7386 57.168 78.1946 58.384C81.7146 59.536 85.3306 60.112 89.0426 60.112C93.4586 60.112 96.9146 59.216 99.4106 57.424C101.971 55.568 103.251 53.072 103.251 49.936C103.251 46.8 102.035 44.368 99.6026 42.64C97.2346 40.848 93.5866 39.952 88.6586 39.952H82.5146V31.408L97.7786 13.264H67.2506V2.8H113.043V11.152L96.7226 30.544Z" fill="white" fill-opacity="0.03"/>
<path d="M83.0727 103.667C83.4594 100.477 83.7493 97.2867 83.7493 94C83.7493 90.7134 83.4594 87.5233 83.0727 84.3334H99.4093C100.183 87.4267 100.666 90.665 100.666 94C100.666 97.335 100.183 100.573 99.4093 103.667M74.5177 130.54C77.4177 125.175 79.641 119.375 81.1877 113.333H95.446C90.7633 121.397 83.3342 127.505 74.5177 130.54ZM73.3093 103.667H50.6893C50.206 100.477 49.916 97.2867 49.916 94C49.916 90.7134 50.206 87.475 50.6893 84.3334H73.3093C73.7443 87.475 74.0827 90.7134 74.0827 94C74.0827 97.2867 73.7443 100.477 73.3093 103.667ZM61.9993 132.473C57.9877 126.673 54.7493 120.245 52.7677 113.333H71.231C69.2493 120.245 66.011 126.673 61.9993 132.473ZM42.666 74.6667H28.5527C33.1872 66.5816 40.6109 60.4639 49.4327 57.46C46.5327 62.825 44.3577 68.625 42.666 74.6667ZM28.5527 113.333H42.666C44.3577 119.375 46.5327 125.175 49.4327 130.54C40.6294 127.503 33.2161 121.394 28.5527 113.333ZM24.5893 103.667C23.816 100.573 23.3327 97.335 23.3327 94C23.3327 90.665 23.816 87.4267 24.5893 84.3334H40.926C40.5393 87.5233 40.2493 90.7134 40.2493 94C40.2493 97.2867 40.5393 100.477 40.926 103.667M61.9993 55.4784C66.011 61.2784 69.2493 67.755 71.231 74.6667H52.7677C54.7493 67.755 57.9877 61.2784 61.9993 55.4784ZM95.446 74.6667H81.1877C79.6749 68.6804 77.435 62.9018 74.5177 57.46C83.411 60.505 90.806 66.6434 95.446 74.6667ZM61.9993 45.6667C35.271 45.6667 13.666 67.4167 13.666 94C13.666 106.819 18.7583 119.113 27.8225 128.177C32.3107 132.665 37.6389 136.225 43.503 138.654C49.3671 141.083 55.6521 142.333 61.9993 142.333C74.8181 142.333 87.1119 137.241 96.1762 128.177C105.24 119.113 110.333 106.819 110.333 94C110.333 87.6528 109.083 81.3677 106.654 75.5037C104.225 69.6396 100.664 64.3114 96.1762 59.8232C91.688 55.335 86.3598 51.7748 80.4957 49.3458C74.6316 46.9169 68.3466 45.6667 61.9993 45.6667Z" fill="#FFE27C"/>
</svg>
