<svg width="607" height="347" viewBox="0 0 607 347" fill="none" xmlns="http://www.w3.org/2000/svg">
<path d="M33.6747 228H32.6747V229H33.6747V228ZM33.6747 100.58H34.6747V99.318L33.4461 99.6065L33.6747 100.58ZM7.22469 106.79H6.22469V108.052L7.45326 107.764L7.22469 106.79ZM7.22469 84.25L6.81905 83.336L6.22469 83.5997V84.25H7.22469ZM46.0947 67V66H45.8828L45.6891 66.086L46.0947 67ZM64.2647 67H65.2647V66H64.2647V67ZM64.2647 228V229H65.2647V228H64.2647ZM34.6747 228V100.58H32.6747V228H34.6747ZM33.4461 99.6065L6.99612 105.816L7.45326 107.764L33.9033 101.554L33.4461 99.6065ZM8.22469 106.79V84.25H6.22469V106.79H8.22469ZM7.63032 85.164L46.5003 67.914L45.6891 66.086L6.81905 83.336L7.63032 85.164ZM46.0947 68H64.2647V66H46.0947V68ZM63.2647 67V228H65.2647V67H63.2647ZM64.2647 227H33.6747V229H64.2647V227ZM123.312 220.41L122.757 221.242L122.766 221.248L123.312 220.41ZM98.7018 191.2L97.7903 191.611L97.7933 191.618L97.7965 191.625L98.7018 191.2ZM98.7018 104.03L97.7944 103.61L97.7903 103.619L98.7018 104.03ZM123.312 74.82L123.858 75.6577L123.866 75.652L123.312 74.82ZM199.672 74.82L199.117 75.6521L199.126 75.6576L199.672 74.82ZM224.052 104.03L223.14 104.441L223.144 104.45L224.052 104.03ZM224.052 191.2L223.144 190.78L223.142 190.785L224.052 191.2ZM199.672 220.41L200.218 221.248L200.227 221.242L199.672 220.41ZM191.162 189.13L190.365 188.526L190.365 188.526L191.162 189.13ZM191.162 105.87L190.365 106.474L191.162 105.87ZM131.592 105.87L130.795 105.266L130.789 105.274L131.592 105.87ZM131.592 189.13L130.789 189.726L130.795 189.734L131.592 189.13ZM161.492 229.76C146.777 229.76 134.249 226.349 123.858 219.572L122.766 221.248C133.535 228.271 146.46 231.76 161.492 231.76V229.76ZM123.866 219.578C113.45 212.634 105.363 203.044 99.6071 190.775L97.7965 191.625C103.694 204.196 112.013 214.08 122.757 221.242L123.866 219.578ZM99.6133 190.789C94.0088 178.368 91.1918 163.946 91.1918 147.5H89.1918C89.1918 164.174 92.0481 178.885 97.7903 191.611L99.6133 190.789ZM91.1918 147.5C91.1918 131.209 94.0083 116.863 99.6133 104.441L97.7903 103.619C92.0486 116.343 89.1918 130.978 89.1918 147.5H91.1918ZM99.6091 104.45C105.365 92.0302 113.45 82.4453 123.858 75.6576L122.766 73.9824C112.013 80.9947 103.692 90.8832 97.7945 103.61L99.6091 104.45ZM123.866 75.652C134.256 68.7258 146.782 65.24 161.492 65.24V63.24C146.455 63.24 133.528 66.8075 122.757 73.9879L123.866 75.652ZM161.492 65.24C176.202 65.24 188.728 68.7258 199.117 75.652L200.227 73.9879C189.456 66.8075 176.528 63.24 161.492 63.24V65.24ZM199.126 75.6576C209.531 82.4437 217.538 92.0254 223.14 104.441L224.963 103.619C219.219 90.888 210.973 80.9962 200.218 73.9824L199.126 75.6576ZM223.144 104.45C228.9 116.87 231.792 131.212 231.792 147.5H233.792C233.792 130.975 230.857 116.337 224.959 103.61L223.144 104.45ZM231.792 147.5C231.792 163.943 228.899 178.361 223.144 190.78L224.959 191.62C230.858 178.892 233.792 164.177 233.792 147.5H231.792ZM223.142 190.785C217.54 203.048 209.531 212.635 199.117 219.578L200.227 221.242C210.973 214.078 219.217 204.192 224.961 191.615L223.142 190.785ZM199.126 219.572C188.735 226.349 176.206 229.76 161.492 229.76V231.76C176.524 231.76 189.449 228.271 200.218 221.248L199.126 219.572ZM161.492 205.31C173.935 205.31 184.114 200.089 191.959 189.734L190.365 188.526C182.876 198.411 173.275 203.31 161.492 203.31V205.31ZM191.959 189.734C199.8 179.384 203.662 165.268 203.662 147.5H201.662C201.662 164.998 197.857 178.636 190.365 188.526L191.959 189.734ZM203.662 147.5C203.662 129.732 199.8 115.616 191.959 105.266L190.365 106.474C197.857 116.364 201.662 130.002 201.662 147.5H203.662ZM191.959 105.266C184.114 94.9106 173.935 89.69 161.492 89.69V91.69C173.275 91.69 182.876 96.5894 190.365 106.474L191.959 105.266ZM161.492 89.69C148.899 89.69 138.643 94.9068 130.795 105.266L132.389 106.474C139.874 96.5932 149.551 91.69 161.492 91.69V89.69ZM130.789 105.274C123.105 115.623 119.322 129.735 119.322 147.5H121.322C121.322 129.998 125.052 116.357 132.395 106.466L130.789 105.274ZM119.322 147.5C119.322 165.265 123.105 179.377 130.789 189.726L132.395 188.534C125.052 178.643 121.322 165.002 121.322 147.5H119.322ZM130.795 189.734C138.643 200.093 148.899 205.31 161.492 205.31V203.31C149.551 203.31 139.874 198.407 132.389 188.526L130.795 189.734ZM286.603 220.41L286.048 221.242L286.057 221.248L286.603 220.41ZM261.993 191.2L261.081 191.611L261.084 191.618L261.087 191.625L261.993 191.2ZM261.993 104.03L261.085 103.61L261.081 103.619L261.993 104.03ZM286.603 74.82L287.149 75.6577L287.158 75.652L286.603 74.82ZM362.963 74.82L362.408 75.6521L362.417 75.6576L362.963 74.82ZM387.343 104.03L386.431 104.441L386.436 104.45L387.343 104.03ZM387.343 191.2L386.435 190.78L386.433 190.785L387.343 191.2ZM362.963 220.41L363.509 221.248L363.518 221.242L362.963 220.41ZM354.453 189.13L353.656 188.526L353.656 188.526L354.453 189.13ZM354.453 105.87L353.656 106.474L354.453 105.87ZM294.883 105.87L294.086 105.266L294.08 105.274L294.883 105.87ZM294.883 189.13L294.08 189.726L294.086 189.734L294.883 189.13ZM324.783 229.76C310.068 229.76 297.54 226.349 287.149 219.572L286.057 221.248C296.826 228.271 309.751 231.76 324.783 231.76V229.76ZM287.158 219.578C276.741 212.634 268.654 203.044 262.898 190.775L261.087 191.625C266.985 204.196 275.304 214.08 286.048 221.242L287.158 219.578ZM262.904 190.789C257.3 178.368 254.483 163.946 254.483 147.5H252.483C252.483 164.174 255.339 178.885 261.081 191.611L262.904 190.789ZM254.483 147.5C254.483 131.209 257.299 116.863 262.904 104.441L261.081 103.619C255.34 116.343 252.483 130.978 252.483 147.5H254.483ZM262.9 104.45C268.656 92.0302 276.741 82.4453 287.149 75.6576L286.057 73.9824C275.304 80.9947 266.983 90.8832 261.086 103.61L262.9 104.45ZM287.158 75.652C297.547 68.7258 310.073 65.24 324.783 65.24V63.24C309.746 63.24 296.819 66.8075 286.048 73.9879L287.158 75.652ZM324.783 65.24C339.493 65.24 352.019 68.7258 362.408 75.652L363.518 73.9879C352.747 66.8075 339.819 63.24 324.783 63.24V65.24ZM362.417 75.6576C372.822 82.4437 380.829 92.0254 386.431 104.441L388.254 103.619C382.51 90.888 374.264 80.9962 363.509 73.9824L362.417 75.6576ZM386.436 104.45C392.191 116.87 395.083 131.212 395.083 147.5H397.083C397.083 130.975 394.148 116.337 388.25 103.61L386.436 104.45ZM395.083 147.5C395.083 163.943 392.19 178.361 386.436 190.78L388.25 191.62C394.149 178.892 397.083 164.177 397.083 147.5H395.083ZM386.433 190.785C380.831 203.048 372.822 212.635 362.408 219.578L363.518 221.242C374.264 214.078 382.508 204.192 388.252 191.615L386.433 190.785ZM362.417 219.572C352.026 226.349 339.497 229.76 324.783 229.76V231.76C339.815 231.76 352.74 228.271 363.509 221.248L362.417 219.572ZM324.783 205.31C337.226 205.31 347.405 200.089 355.25 189.734L353.656 188.526C346.167 198.411 336.566 203.31 324.783 203.31V205.31ZM355.25 189.734C363.091 179.384 366.953 165.268 366.953 147.5H364.953C364.953 164.998 361.148 178.636 353.656 188.526L355.25 189.734ZM366.953 147.5C366.953 129.732 363.091 115.616 355.25 105.266L353.656 106.474C361.148 116.364 364.953 130.002 364.953 147.5H366.953ZM355.25 105.266C347.405 94.9106 337.226 89.69 324.783 89.69V91.69C336.566 91.69 346.167 96.5894 353.656 106.474L355.25 105.266ZM324.783 89.69C312.19 89.69 301.934 94.9068 294.086 105.266L295.68 106.474C303.165 96.5932 312.842 91.69 324.783 91.69V89.69ZM294.08 105.274C286.396 115.623 282.613 129.735 282.613 147.5H284.613C284.613 129.998 288.343 116.357 295.686 106.466L294.08 105.274ZM282.613 147.5C282.613 165.265 286.396 179.377 294.08 189.726L295.686 188.534C288.343 178.643 284.613 165.002 284.613 147.5H282.613ZM294.086 189.734C301.934 200.093 312.19 205.31 324.783 205.31V203.31C312.842 203.31 303.165 198.407 295.68 188.526L294.086 189.734ZM435.174 141.29L434.683 142.161L434.691 142.166L434.7 142.17L435.174 141.29ZM420.914 127.03L420.047 127.528L420.047 127.528L420.914 127.03ZM420.914 83.33L421.781 83.8285L421.781 83.8285L420.914 83.33ZM435.174 69.3L435.648 70.1805L435.657 70.1758L435.665 70.171L435.174 69.3ZM475.194 69.3L474.693 70.1654L474.706 70.1731L474.72 70.1805L475.194 69.3ZM489.454 83.33L488.587 83.8285L488.587 83.8285L489.454 83.33ZM489.454 127.03L490.321 127.528L490.321 127.528L489.454 127.03ZM475.194 141.29L475.668 142.17L475.677 142.166L475.685 142.161L475.194 141.29ZM446.444 228L445.573 227.509L444.731 229H446.444V228ZM537.294 67V66H536.71L536.423 66.5085L537.294 67ZM566.044 67L566.915 67.4914L567.756 66H566.044V67ZM475.194 228V229H475.778L476.065 228.491L475.194 228ZM466.684 120.59L467.407 121.28L467.415 121.272L467.422 121.264L466.684 120.59ZM466.684 89.77L465.929 90.4262L465.937 90.4353L465.945 90.4443L466.684 89.77ZM443.454 89.77L442.715 89.0957L442.707 89.1047L442.699 89.1138L443.454 89.77ZM443.454 120.59L442.699 121.246L442.714 121.264L442.73 121.28L443.454 120.59ZM538.214 225.93L537.723 226.801L537.731 226.806L537.74 226.81L538.214 225.93ZM523.954 211.67L523.087 212.168L523.087 212.168L523.954 211.67ZM523.954 168.2L524.815 168.708L524.821 168.698L523.954 168.2ZM538.214 154.17L538.688 155.05L538.697 155.046L538.705 155.041L538.214 154.17ZM578.234 154.17L577.733 155.035L577.746 155.043L577.76 155.05L578.234 154.17ZM592.494 168.2L591.627 168.698L591.632 168.708L592.494 168.2ZM592.494 211.67L593.361 212.168L593.361 212.168L592.494 211.67ZM578.234 225.93L578.718 226.805L578.725 226.801L578.234 225.93ZM569.724 205.23L568.985 204.556L568.984 204.557L569.724 205.23ZM569.724 174.41L568.969 175.066L568.977 175.075L568.985 175.084L569.724 174.41ZM546.494 174.41L545.755 173.736L545.747 173.745L545.739 173.754L546.494 174.41ZM546.494 205.23L545.739 205.886L545.754 205.904L545.77 205.92L546.494 205.23ZM455.184 145.12C447.975 145.12 441.47 143.545 435.648 140.41L434.7 142.17C440.837 145.475 447.673 147.12 455.184 147.12V145.12ZM435.665 140.419C429.846 137.137 425.221 132.514 421.781 126.532L420.047 127.528C423.66 133.812 428.541 138.697 434.683 142.161L435.665 140.419ZM421.781 126.532C418.357 120.577 416.624 113.472 416.624 105.18H414.624C414.624 113.755 416.418 121.217 420.047 127.528L421.781 126.532ZM416.624 105.18C416.624 96.8879 418.357 89.7834 421.781 83.8285L420.047 82.8315C416.418 89.1433 414.624 96.6054 414.624 105.18H416.624ZM421.781 83.8285C425.219 77.8495 429.839 73.3084 435.648 70.1805L434.7 68.4195C428.549 71.7316 423.662 76.5438 420.047 82.8315L421.781 83.8285ZM435.665 70.171C441.481 66.89 448.056 65.24 455.414 65.24V63.24C447.745 63.24 440.826 64.9633 434.683 68.429L435.665 70.171ZM455.414 65.24C462.615 65.24 469.032 66.8883 474.693 70.1654L475.695 68.4346C469.702 64.965 462.933 63.24 455.414 63.24V65.24ZM474.72 70.1805C480.529 73.3084 485.149 77.8495 488.587 83.8285L490.321 82.8315C486.705 76.5438 481.819 71.7316 475.668 68.4195L474.72 70.1805ZM488.587 83.8285C492.011 89.7834 493.744 96.8879 493.744 105.18H495.744C495.744 96.6054 493.95 89.1433 490.321 82.8315L488.587 83.8285ZM493.744 105.18C493.744 113.472 492.011 120.577 488.587 126.532L490.321 127.528C493.95 121.217 495.744 113.755 495.744 105.18H493.744ZM488.587 126.532C485.147 132.514 480.521 137.137 474.703 140.419L475.685 142.161C481.826 138.697 486.707 133.812 490.321 127.528L488.587 126.532ZM474.72 140.41C468.897 143.545 462.393 145.12 455.184 145.12V147.12C462.695 147.12 469.53 145.475 475.668 142.17L474.72 140.41ZM447.315 228.491L538.165 67.4914L536.423 66.5085L445.573 227.509L447.315 228.491ZM537.294 68H566.044V66H537.294V68ZM565.173 66.5085L474.323 227.509L476.065 228.491L566.915 67.4914L565.173 66.5085ZM475.194 227H446.444V229H475.194V227ZM455.184 126.65C459.918 126.65 464.009 124.841 467.407 121.28L465.96 119.9C462.919 123.086 459.343 124.65 455.184 124.65V126.65ZM467.422 121.264C470.869 117.489 472.514 112.073 472.514 105.18H470.514C470.514 111.78 468.939 116.637 465.945 119.916L467.422 121.264ZM472.514 105.18C472.514 98.2866 470.869 92.8706 467.422 89.0957L465.945 90.4443C468.939 93.7227 470.514 98.5801 470.514 105.18H472.514ZM467.438 89.1138C464.185 85.3727 460.079 83.48 455.184 83.48V85.48C459.489 85.48 463.049 87.1139 465.929 90.4262L467.438 89.1138ZM455.184 83.48C450.291 83.48 446.117 85.3705 442.715 89.0957L444.192 90.4443C447.231 87.1161 450.877 85.48 455.184 85.48V83.48ZM442.699 89.1138C439.417 92.8886 437.854 98.2973 437.854 105.18H439.854C439.854 98.5693 441.358 93.7047 444.208 90.4262L442.699 89.1138ZM437.854 105.18C437.854 112.063 439.417 117.471 442.699 121.246L444.208 119.934C441.358 116.655 439.854 111.791 439.854 105.18H437.854ZM442.73 121.28C446.136 124.848 450.306 126.65 455.184 126.65V124.65C450.861 124.65 447.211 123.078 444.177 119.9L442.73 121.28ZM558.224 229.76C551.015 229.76 544.51 228.185 538.688 225.05L537.74 226.81C543.877 230.115 550.713 231.76 558.224 231.76V229.76ZM538.705 225.059C532.886 221.777 528.261 217.154 524.821 211.172L523.087 212.168C526.7 218.452 531.581 223.337 537.723 226.801L538.705 225.059ZM524.821 211.172C521.397 205.217 519.664 198.112 519.664 189.82H517.664C517.664 198.395 519.458 205.857 523.087 212.168L524.821 211.172ZM519.664 189.82C519.664 181.527 521.397 174.504 524.815 168.708L523.092 167.692C519.457 173.856 517.664 181.246 517.664 189.82H519.664ZM524.821 168.698C528.259 162.719 532.879 158.178 538.688 155.05L537.74 153.29C531.589 156.602 526.702 161.414 523.087 167.702L524.821 168.698ZM538.705 155.041C544.521 151.76 551.096 150.11 558.454 150.11V148.11C550.785 148.11 543.866 149.833 537.723 153.299L538.705 155.041ZM558.454 150.11C565.655 150.11 572.072 151.758 577.733 155.035L578.735 153.305C572.742 149.835 565.973 148.11 558.454 148.11V150.11ZM577.76 155.05C583.569 158.178 588.189 162.719 591.627 168.698L593.361 167.702C589.745 161.414 584.859 156.602 578.708 153.29L577.76 155.05ZM591.632 168.708C595.051 174.504 596.784 181.527 596.784 189.82H598.784C598.784 181.246 596.99 173.856 593.355 167.692L591.632 168.708ZM596.784 189.82C596.784 198.112 595.051 205.217 591.627 211.172L593.361 212.168C596.99 205.857 598.784 198.395 598.784 189.82H596.784ZM591.627 211.172C588.187 217.154 583.561 221.777 577.743 225.059L578.725 226.801C584.866 223.337 589.747 218.452 593.361 212.168L591.627 211.172ZM577.75 225.055C572.09 228.183 565.59 229.76 558.224 229.76V231.76C565.884 231.76 572.725 230.117 578.718 226.805L577.75 225.055ZM558.224 211.29C563.103 211.29 567.206 209.487 570.464 205.903L568.984 204.557C566.109 207.72 562.545 209.29 558.224 209.29V211.29ZM570.462 205.904C573.909 202.129 575.554 196.713 575.554 189.82H573.554C573.554 196.42 571.979 201.277 568.985 204.556L570.462 205.904ZM575.554 189.82C575.554 182.927 573.909 177.511 570.462 173.736L568.985 175.084C571.979 178.363 573.554 183.22 573.554 189.82H575.554ZM570.478 173.754C567.225 170.013 563.119 168.12 558.224 168.12V170.12C562.529 170.12 566.089 171.754 568.969 175.066L570.478 173.754ZM558.224 168.12C553.331 168.12 549.157 170.011 545.755 173.736L547.232 175.084C550.271 171.756 553.917 170.12 558.224 170.12V168.12ZM545.739 173.754C542.457 177.529 540.894 182.937 540.894 189.82H542.894C542.894 183.209 544.398 178.345 547.248 175.066L545.739 173.754ZM540.894 189.82C540.894 196.703 542.457 202.111 545.739 205.886L547.248 204.574C544.398 201.295 542.894 196.431 542.894 189.82H540.894ZM545.77 205.92C549.176 209.488 553.346 211.29 558.224 211.29V209.29C553.901 209.29 550.251 207.718 547.217 204.54L545.77 205.92Z" fill="url(#paint0_linear_334_296)"/>
<path d="M207.159 327V288.792H194.103V282.2H228.471V288.792H215.351V327H207.159ZM244.022 327.768C240.822 327.768 237.984 327.085 235.51 325.72C233.035 324.355 231.094 322.435 229.686 319.96C228.278 317.485 227.574 314.627 227.574 311.384C227.574 308.099 228.256 305.176 229.622 302.616C231.03 300.056 232.95 298.072 235.382 296.664C237.856 295.213 240.758 294.488 244.086 294.488C247.2 294.488 249.952 295.171 252.342 296.536C254.731 297.901 256.587 299.779 257.91 302.168C259.275 304.515 259.958 307.139 259.958 310.04C259.958 310.509 259.936 311 259.894 311.512C259.894 312.024 259.872 312.557 259.83 313.112H235.702C235.872 315.587 236.726 317.528 238.262 318.936C239.84 320.344 241.739 321.048 243.958 321.048C245.622 321.048 247.008 320.685 248.118 319.96C249.27 319.192 250.123 318.211 250.678 317.016H258.998C258.4 319.021 257.398 320.856 255.99 322.52C254.624 324.141 252.918 325.421 250.87 326.36C248.864 327.299 246.582 327.768 244.022 327.768ZM244.086 301.144C242.08 301.144 240.31 301.72 238.774 302.872C237.238 303.981 236.256 305.688 235.83 307.992H251.638C251.51 305.901 250.742 304.237 249.334 303C247.926 301.763 246.176 301.144 244.086 301.144ZM282.4 327.768C279.157 327.768 276.298 327.064 273.824 325.656C271.349 324.248 269.386 322.285 267.936 319.768C266.528 317.251 265.824 314.371 265.824 311.128C265.824 307.885 266.528 305.005 267.936 302.488C269.386 299.971 271.349 298.008 273.824 296.6C276.298 295.192 279.157 294.488 282.4 294.488C286.453 294.488 289.866 295.555 292.64 297.688C295.413 299.779 297.184 302.68 297.951 306.392H289.312C288.885 304.856 288.032 303.661 286.752 302.808C285.514 301.912 284.042 301.464 282.336 301.464C280.074 301.464 278.154 302.317 276.576 304.024C274.997 305.731 274.208 308.099 274.208 311.128C274.208 314.157 274.997 316.525 276.576 318.232C278.154 319.939 280.074 320.792 282.336 320.792C284.042 320.792 285.514 320.365 286.752 319.512C288.032 318.659 288.885 317.443 289.312 315.864H297.951C297.184 319.448 295.413 322.328 292.64 324.504C289.866 326.68 286.453 327.768 282.4 327.768ZM305.223 327V280.92H313.415V300.12C314.481 298.371 315.911 297.005 317.703 296.024C319.537 295 321.628 294.488 323.975 294.488C327.9 294.488 330.929 295.725 333.062 298.2C335.238 300.675 336.326 304.301 336.326 309.08V327H328.199V309.848C328.199 307.117 327.644 305.027 326.535 303.576C325.468 302.125 323.761 301.4 321.415 301.4C319.111 301.4 317.191 302.211 315.655 303.832C314.161 305.453 313.415 307.715 313.415 310.616V327H305.223ZM374.898 327.768C371.613 327.768 368.711 327.213 366.194 326.104C363.677 324.952 361.693 323.331 360.242 321.24C358.791 319.107 358.045 316.525 358.002 313.496H366.642C366.727 315.587 367.474 317.357 368.882 318.808C370.333 320.216 372.317 320.92 374.834 320.92C377.01 320.92 378.738 320.408 380.018 319.384C381.298 318.317 381.938 316.909 381.938 315.16C381.938 313.325 381.362 311.896 380.21 310.872C379.101 309.848 377.607 309.016 375.73 308.376C373.853 307.736 371.847 307.053 369.714 306.328C366.258 305.133 363.613 303.597 361.778 301.72C359.986 299.843 359.09 297.347 359.09 294.232C359.047 291.587 359.666 289.325 360.946 287.448C362.269 285.528 364.061 284.056 366.322 283.032C368.583 281.965 371.186 281.432 374.13 281.432C377.117 281.432 379.741 281.965 382.002 283.032C384.306 284.099 386.098 285.592 387.378 287.512C388.701 289.432 389.405 291.715 389.49 294.36H380.722C380.679 292.781 380.061 291.395 378.866 290.2C377.714 288.963 376.093 288.344 374.002 288.344C372.21 288.301 370.695 288.749 369.458 289.688C368.263 290.584 367.666 291.907 367.666 293.656C367.666 295.149 368.135 296.344 369.074 297.24C370.013 298.093 371.293 298.819 372.914 299.416C374.535 300.013 376.391 300.653 378.482 301.336C380.701 302.104 382.727 303 384.562 304.024C386.397 305.048 387.869 306.413 388.978 308.12C390.087 309.784 390.642 311.939 390.642 314.584C390.642 316.931 390.045 319.107 388.85 321.112C387.655 323.117 385.885 324.739 383.538 325.976C381.191 327.171 378.311 327.768 374.898 327.768ZM409.502 327.768C405.534 327.768 402.462 326.531 400.286 324.056C398.152 321.581 397.086 317.955 397.086 313.176V295.256H405.214V312.408C405.214 315.139 405.768 317.229 406.878 318.68C407.987 320.131 409.736 320.856 412.126 320.856C414.387 320.856 416.243 320.045 417.694 318.424C419.187 316.803 419.934 314.541 419.934 311.64V295.256H428.126V327H420.894L420.254 321.624C419.272 323.501 417.843 324.995 415.966 326.104C414.131 327.213 411.976 327.768 409.502 327.768ZM436.535 341.08V295.256H443.831L444.727 299.8C445.751 298.392 447.095 297.155 448.759 296.088C450.466 295.021 452.663 294.488 455.351 294.488C458.338 294.488 461.004 295.213 463.351 296.664C465.698 298.115 467.554 300.099 468.919 302.616C470.284 305.133 470.967 307.992 470.967 311.192C470.967 314.392 470.284 317.251 468.919 319.768C467.554 322.243 465.698 324.205 463.351 325.656C461.004 327.064 458.338 327.768 455.351 327.768C452.962 327.768 450.871 327.32 449.079 326.424C447.287 325.528 445.836 324.269 444.727 322.648V341.08H436.535ZM453.623 320.6C456.226 320.6 458.38 319.725 460.087 317.976C461.794 316.227 462.647 313.965 462.647 311.192C462.647 308.419 461.794 306.136 460.087 304.344C458.38 302.552 456.226 301.656 453.623 301.656C450.978 301.656 448.802 302.552 447.095 304.344C445.431 306.093 444.599 308.355 444.599 311.128C444.599 313.901 445.431 316.184 447.095 317.976C448.802 319.725 450.978 320.6 453.623 320.6ZM478.285 341.08V295.256H485.581L486.477 299.8C487.501 298.392 488.845 297.155 490.509 296.088C492.216 295.021 494.413 294.488 497.101 294.488C500.088 294.488 502.754 295.213 505.101 296.664C507.448 298.115 509.304 300.099 510.669 302.616C512.034 305.133 512.717 307.992 512.717 311.192C512.717 314.392 512.034 317.251 510.669 319.768C509.304 322.243 507.448 324.205 505.101 325.656C502.754 327.064 500.088 327.768 497.101 327.768C494.712 327.768 492.621 327.32 490.829 326.424C489.037 325.528 487.586 324.269 486.477 322.648V341.08H478.285ZM495.373 320.6C497.976 320.6 500.13 319.725 501.837 317.976C503.544 316.227 504.397 313.965 504.397 311.192C504.397 308.419 503.544 306.136 501.837 304.344C500.13 302.552 497.976 301.656 495.373 301.656C492.728 301.656 490.552 302.552 488.845 304.344C487.181 306.093 486.349 308.355 486.349 311.128C486.349 313.901 487.181 316.184 488.845 317.976C490.552 319.725 492.728 320.6 495.373 320.6ZM535.267 327.768C532.195 327.768 529.422 327.064 526.947 325.656C524.515 324.248 522.574 322.307 521.123 319.832C519.715 317.315 519.011 314.413 519.011 311.128C519.011 307.843 519.736 304.963 521.187 302.488C522.638 299.971 524.579 298.008 527.011 296.6C529.486 295.192 532.259 294.488 535.331 294.488C538.36 294.488 541.091 295.192 543.523 296.6C545.998 298.008 547.939 299.971 549.347 302.488C550.798 304.963 551.523 307.843 551.523 311.128C551.523 314.413 550.798 317.315 549.347 319.832C547.939 322.307 545.998 324.248 543.523 325.656C541.048 327.064 538.296 327.768 535.267 327.768ZM535.267 320.664C537.4 320.664 539.256 319.875 540.835 318.296C542.414 316.675 543.203 314.285 543.203 311.128C543.203 307.971 542.414 305.603 540.835 304.024C539.256 302.403 537.422 301.592 535.331 301.592C533.155 301.592 531.278 302.403 529.699 304.024C528.163 305.603 527.395 307.971 527.395 311.128C527.395 314.285 528.163 316.675 529.699 318.296C531.278 319.875 533.134 320.664 535.267 320.664ZM558.848 327V295.256H566.144L566.912 301.208C568.064 299.16 569.621 297.539 571.583 296.344C573.589 295.107 575.936 294.488 578.624 294.488V303.128H576.32C574.528 303.128 572.928 303.405 571.52 303.96C570.112 304.515 569.002 305.475 568.192 306.84C567.424 308.205 567.04 310.104 567.04 312.536V327H558.848ZM598.367 327C595.039 327 592.372 326.189 590.367 324.568C588.361 322.947 587.359 320.067 587.359 315.928V302.104H581.919V295.256H587.359L588.319 286.744H595.551V295.256H604.127V302.104H595.551V315.992C595.551 317.528 595.871 318.595 596.51 319.192C597.193 319.747 598.345 320.024 599.967 320.024H603.935V327H598.367Z" fill="url(#paint1_linear_334_296)"/>
<defs>
<linearGradient id="paint0_linear_334_296" x1="630.448" y1="199.195" x2="0.202349" y2="167.066" gradientUnits="userSpaceOnUse">
<stop stop-color="#FB10D5"/>
<stop offset="1" stop-color="#FF00D6" stop-opacity="0.14"/>
</linearGradient>
<linearGradient id="paint1_linear_334_296" x1="195.536" y1="317.357" x2="607.04" y2="319.606" gradientUnits="userSpaceOnUse">
<stop stop-color="#FBC710"/>
<stop offset="1" stop-color="#FB10D5"/>
</linearGradient>
</defs>
</svg>
