<svg width="54" height="29" viewBox="0 0 54 29" fill="none" xmlns="http://www.w3.org/2000/svg">
<path d="M10.72 12.2C13.8133 12.28 16.16 13.04 17.76 14.48C19.3867 15.8933 20.2 17.7733 20.2 20.12C20.2 21.6933 19.8267 23.0933 19.08 24.32C18.3333 25.52 17.2133 26.4667 15.72 27.16C14.2533 27.8533 12.48 28.2 10.4 28.2C8.37333 28.2 6.46667 27.8667 4.68 27.2C2.89333 26.5067 1.50667 25.5867 0.52 24.44L1.56 22.88C2.46667 23.8933 3.69333 24.72 5.24 25.36C6.81333 26 8.53333 26.32 10.4 26.32C12.88 26.32 14.7867 25.7733 16.12 24.68C17.4533 23.56 18.12 22.04 18.12 20.12C18.12 18.1733 17.44 16.6533 16.08 15.56C14.72 14.4667 12.68 13.92 9.96 13.92H8.2V12.44L16.48 1.84H1.56V-1.90735e-06H19.12V1.44L10.72 12.2ZM27.1847 -1.90735e-06H38.2647C41.1714 -1.90735e-06 43.7447 0.599998 45.9847 1.8C48.2514 3 50.0114 4.66667 51.2647 6.8C52.518 8.90667 53.1447 11.3067 53.1447 14C53.1447 16.6933 52.518 19.1067 51.2647 21.24C50.0114 23.3467 48.2514 25 45.9847 26.2C43.7447 27.4 41.1714 28 38.2647 28H27.1847V-1.90735e-06ZM38.1047 26.16C40.6914 26.16 42.9714 25.6533 44.9447 24.64C46.918 23.6 48.438 22.16 49.5047 20.32C50.5714 18.48 51.1047 16.3733 51.1047 14C51.1047 11.6267 50.5714 9.52 49.5047 7.68C48.438 5.84 46.918 4.41333 44.9447 3.4C42.9714 2.36 40.6914 1.84 38.1047 1.84H29.2247V26.16H38.1047Z" fill="white"/>
</svg>
