<svg width="42" height="42" viewBox="0 0 42 42" fill="none" xmlns="http://www.w3.org/2000/svg">
<path d="M12.25 5.25C9.275 5.25 7 7.525 7 10.5V11.9C7 13.3 6.825 14.525 6.3 15.925C5.775 17.85 3.85 19.25 1.75 19.25V22.75C3.85 22.75 5.775 24.15 6.3 26.075C6.825 27.3 7 28.7 7 30.1V31.5C7 34.475 9.275 36.75 12.25 36.75H29.75C32.725 36.75 35 34.475 35 31.5V30.1C35 28.7 35.175 27.475 35.7 26.075C36.4 24.15 38.15 22.75 40.25 22.75V19.25C38.15 19.25 36.225 17.85 35.7 15.925C35.175 14.7 35 13.3 35 11.9V10.5C35 7.525 32.725 5.25 29.75 5.25H12.25Z" stroke="white" stroke-width="1.5" stroke-linejoin="round"/>
<path d="M22.2254 21.0001C24.3254 21.0001 25.9004 22.5751 25.9004 24.6751C25.9004 26.7751 24.3254 28.3501 22.2254 28.3501H17.1504V13.6501H22.2254C24.3254 13.6501 25.9004 15.2251 25.9004 17.3251C25.9004 19.4251 24.3254 21.0001 22.2254 21.0001H17.1504H22.2254Z" stroke="white" stroke-width="1.5" stroke-linecap="round" stroke-linejoin="round"/>
</svg>
