<svg width="42" height="42" viewBox="0 0 42 42" fill="none" xmlns="http://www.w3.org/2000/svg">
<path d="M15.2254 3.5C11.9004 3.5 9.27539 6.125 9.27539 9.275C9.27539 12.425 11.9004 15.05 15.0504 15.05H21.0004V3.5H15.2254Z" stroke="white" stroke-width="1.5"/>
<path d="M15.2242 15.2249C12.0742 15.2249 9.44922 17.8499 9.44922 20.9999C9.44922 24.1499 12.0742 26.7749 15.2242 26.7749H20.9992V15.2249H15.2242Z" stroke="white" stroke-width="1.5"/>
<path d="M15.2242 26.7751C12.0742 26.7751 9.44922 29.4001 9.44922 32.5501C9.44922 35.7001 12.0742 38.3251 15.2242 38.3251C18.3742 38.3251 20.9992 35.7001 20.9992 32.5501V26.7751H15.2242Z" stroke="white" stroke-width="1.5"/>
<path d="M26.775 3.5C29.925 3.5 32.55 6.125 32.55 9.275C32.55 12.425 29.925 15.05 26.775 15.05H21V3.5H26.775Z" stroke="white" stroke-width="1.5"/>
<path d="M32.55 20.9999C32.55 24.1499 29.925 26.7749 26.775 26.7749C23.625 26.7749 21 24.1499 21 20.9999C21 17.8499 23.625 15.2249 26.775 15.2249C29.925 15.2249 32.55 17.8499 32.55 20.9999Z" stroke="white" stroke-width="1.5"/>
</svg>
