<svg width="42" height="42" viewBox="0 0 42 42" fill="none" xmlns="http://www.w3.org/2000/svg">
<path d="M15.75 15.7498V29.5748C15.75 32.1998 12.95 33.9498 10.5 32.5498L6.125 30.0998C5.6 29.9248 5.25 29.3998 5.25 28.6998V13.2998C5.25 12.5998 5.6 12.0748 6.125 11.7248L20.125 4.02483C20.65 3.67483 21.35 3.67483 21.875 4.02483L35.875 11.7248C36.4 12.0748 36.75 12.5998 36.75 13.2998V28.6998C36.75 29.3998 36.4 29.9248 35.875 30.2748L21.875 37.9748C21.35 38.3248 20.65 38.3248 20.125 37.9748L17.5 36.7498" stroke="white" stroke-width="1.5" stroke-linecap="round" stroke-linejoin="round"/>
<path d="M29.7504 18.9C29.7504 17.15 28.3504 15.75 26.7754 15.75H23.6254C21.8754 15.75 20.6504 17.15 20.6504 18.725C20.6504 20.475 22.0504 21.7 23.6254 21.7H26.7754C28.5254 21.7 29.7504 23.1 29.7504 24.675C29.7504 26.425 28.3504 27.65 26.7754 27.65H23.6254C21.8754 27.65 20.6504 26.25 20.6504 24.675" stroke="white" stroke-width="1.5" stroke-linecap="round" stroke-linejoin="round"/>
</svg>
