<svg width="83" height="66" viewBox="0 0 83 66" fill="none" xmlns="http://www.w3.org/2000/svg">
<path d="M41.4915 0.727272V16H39.7017L31.3793 4.00852H31.2301V16H29.3807V0.727272H31.1705L39.5227 12.7486H39.6719V0.727272H41.4915ZM58.0786 8.36364C58.0786 9.97443 57.7877 11.3665 57.2061 12.5398C56.6244 13.7131 55.8264 14.6179 54.8122 15.2543C53.798 15.8906 52.6396 16.2088 51.3371 16.2088C50.0345 16.2088 48.8762 15.8906 47.8619 15.2543C46.8477 14.6179 46.0498 13.7131 45.4681 12.5398C44.8865 11.3665 44.5956 9.97443 44.5956 8.36364C44.5956 6.75284 44.8865 5.3608 45.4681 4.1875C46.0498 3.0142 46.8477 2.10937 47.8619 1.47301C48.8762 0.836647 50.0345 0.518465 51.3371 0.518465C52.6396 0.518465 53.798 0.836647 54.8122 1.47301C55.8264 2.10937 56.6244 3.0142 57.2061 4.1875C57.7877 5.3608 58.0786 6.75284 58.0786 8.36364ZM56.2888 8.36364C56.2888 7.04119 56.0676 5.92507 55.6251 5.01527C55.1876 4.10547 54.5935 3.4169 53.8428 2.94957C53.097 2.48224 52.2618 2.24858 51.3371 2.24858C50.4124 2.24858 49.5747 2.48224 48.824 2.94957C48.0782 3.4169 47.4841 4.10547 47.0416 5.01527C46.6041 5.92507 46.3854 7.04119 46.3854 8.36364C46.3854 9.68608 46.6041 10.8022 47.0416 11.712C47.4841 12.6218 48.0782 13.3104 48.824 13.7777C49.5747 14.245 50.4124 14.4787 51.3371 14.4787C52.2618 14.4787 53.097 14.245 53.8428 13.7777C54.5935 13.3104 55.1876 12.6218 55.6251 11.712C56.0676 10.8022 56.2888 9.68608 56.2888 8.36364ZM0.117898 34.1989V33.0057L9.72301 28.1136V30.0227L2.35511 33.5724L2.41477 33.4531V33.7514L2.35511 33.6321L9.72301 37.1818V39.0909L0.117898 34.1989ZM25.982 30.5H24.1325C24.0232 29.968 23.8318 29.5007 23.5583 29.098C23.2899 28.6953 22.9617 28.3572 22.574 28.0838C22.1911 27.8054 21.7661 27.5966 21.2987 27.4574C20.8314 27.3182 20.3442 27.2486 19.8371 27.2486C18.9124 27.2486 18.0747 27.4822 17.324 27.9496C16.5782 28.4169 15.9841 29.1055 15.5416 30.0153C15.1041 30.9251 14.8854 32.0412 14.8854 33.3636C14.8854 34.6861 15.1041 35.8022 15.5416 36.712C15.9841 37.6218 16.5782 38.3104 17.324 38.7777C18.0747 39.245 18.9124 39.4787 19.8371 39.4787C20.3442 39.4787 20.8314 39.4091 21.2987 39.2699C21.7661 39.1307 22.1911 38.9244 22.574 38.6509C22.9617 38.3725 23.2899 38.032 23.5583 37.6293C23.8318 37.2216 24.0232 36.7543 24.1325 36.2273H25.982C25.8428 37.0078 25.5892 37.7063 25.2213 38.3228C24.8534 38.9393 24.396 39.4638 23.8492 39.8963C23.3023 40.3239 22.6883 40.6495 22.0072 40.8732C21.3311 41.0969 20.6077 41.2088 19.8371 41.2088C18.5345 41.2088 17.3762 40.8906 16.3619 40.2543C15.3477 39.6179 14.5498 38.7131 13.9681 37.5398C13.3865 36.3665 13.0956 34.9744 13.0956 33.3636C13.0956 31.7528 13.3865 30.3608 13.9681 29.1875C14.5498 28.0142 15.3477 27.1094 16.3619 26.473C17.3762 25.8366 18.5345 25.5185 19.8371 25.5185C20.6077 25.5185 21.3311 25.6303 22.0072 25.854C22.6883 26.0778 23.3023 26.4059 23.8492 26.8384C24.396 27.266 24.8534 27.788 25.2213 28.4045C25.5892 29.016 25.8428 29.7145 25.982 30.5ZM41.8569 33.3636C41.8569 34.9744 41.5661 36.3665 40.9844 37.5398C40.4027 38.7131 39.6048 39.6179 38.5906 40.2543C37.5763 40.8906 36.418 41.2088 35.1154 41.2088C33.8129 41.2088 32.6545 40.8906 31.6403 40.2543C30.6261 39.6179 29.8281 38.7131 29.2464 37.5398C28.6648 36.3665 28.3739 34.9744 28.3739 33.3636C28.3739 31.7528 28.6648 30.3608 29.2464 29.1875C29.8281 28.0142 30.6261 27.1094 31.6403 26.473C32.6545 25.8366 33.8129 25.5185 35.1154 25.5185C36.418 25.5185 37.5763 25.8366 38.5906 26.473C39.6048 27.1094 40.4027 28.0142 40.9844 29.1875C41.5661 30.3608 41.8569 31.7528 41.8569 33.3636ZM40.0671 33.3636C40.0671 32.0412 39.8459 30.9251 39.4034 30.0153C38.9659 29.1055 38.3718 28.4169 37.6211 27.9496C36.8754 27.4822 36.0401 27.2486 35.1154 27.2486C34.1907 27.2486 33.353 27.4822 32.6023 27.9496C31.8565 28.4169 31.2624 29.1055 30.82 30.0153C30.3825 30.9251 30.1637 32.0412 30.1637 33.3636C30.1637 34.6861 30.3825 35.8022 30.82 36.712C31.2624 37.6218 31.8565 38.3104 32.6023 38.7777C33.353 39.245 34.1907 39.4787 35.1154 39.4787C36.0401 39.4787 36.8754 39.245 37.6211 38.7777C38.3718 38.3104 38.9659 37.6218 39.4034 36.712C39.8459 35.8022 40.0671 34.6861 40.0671 33.3636ZM49.6797 41H44.9666V25.7273H49.8885C51.37 25.7273 52.6378 26.033 53.6918 26.6445C54.7457 27.2511 55.5536 28.1236 56.1154 29.2621C56.6772 30.3956 56.9581 31.7528 56.9581 33.3338C56.9581 34.9247 56.6747 36.2944 56.108 37.4428C55.5412 38.5863 54.7159 39.4663 53.6321 40.0827C52.5483 40.6942 51.2308 41 49.6797 41ZM46.8161 39.3594H49.5604C50.8232 39.3594 51.8697 39.1158 52.6999 38.6286C53.5302 38.1413 54.1491 37.4478 54.5568 36.5479C54.9645 35.6481 55.1683 34.5767 55.1683 33.3338C55.1683 32.1009 54.967 31.0394 54.5643 30.1495C54.1616 29.2546 53.56 28.5685 52.7596 28.0913C51.9592 27.609 50.9624 27.3679 49.7692 27.3679H46.8161V39.3594ZM60.0604 41V25.7273H69.2777V27.3679H61.9098V32.5284H68.8004V34.169H61.9098V39.3594H69.397V41H60.0604ZM82.4847 34.1989L72.8796 39.0909V37.1818L80.2475 33.6321L80.1879 33.7514V33.4531L80.2475 33.5724L72.8796 30.0227V28.1136L82.4847 33.0057V34.1989ZM28.1875 66H23.4744V50.7273H28.3963C29.8778 50.7273 31.1456 51.033 32.1996 51.6445C33.2536 52.2511 34.0614 53.1236 34.6232 54.2621C35.185 55.3956 35.4659 56.7528 35.4659 58.3338C35.4659 59.9247 35.1825 61.2944 34.6158 62.4428C34.049 63.5863 33.2237 64.4663 32.1399 65.0827C31.0561 65.6942 29.7386 66 28.1875 66ZM25.3239 64.3594H28.0682C29.331 64.3594 30.3775 64.1158 31.2077 63.6286C32.038 63.1413 32.657 62.4478 33.0646 61.5479C33.4723 60.6481 33.6761 59.5767 33.6761 58.3338C33.6761 57.1009 33.4748 56.0394 33.0721 55.1495C32.6694 54.2546 32.0678 53.5685 31.2674 53.0913C30.467 52.609 29.4702 52.3679 28.277 52.3679H25.3239V64.3594ZM38.5682 66V50.7273H47.7855V52.3679H40.4176V57.5284H47.3082V59.169H40.4176V64.3594H47.9048V66H38.5682ZM51.7454 50.7273L56.2795 63.5838H56.4585L60.9925 50.7273H62.9315L57.3235 66H55.4144L49.8065 50.7273H51.7454Z" fill="white"/>
</svg>
