<svg width="42" height="42" viewBox="0 0 42 42" fill="none" xmlns="http://www.w3.org/2000/svg">
<path d="M13.3008 13.3002V6.82517C13.3008 5.42517 14.3508 4.20017 15.7508 3.85017C19.2508 3.32517 22.7508 3.32517 26.2508 3.85017C27.6508 4.02517 28.7008 5.25017 28.7008 6.82517V17.1502C28.7008 19.2502 26.9508 21.0002 24.8508 21.0002H17.1508C15.0508 21.0002 13.3008 22.7502 13.3008 24.8502V35.1752C13.3008 36.5752 14.3508 37.8002 15.7508 38.1502C19.2508 38.6752 22.7508 38.6752 26.2508 38.1502C27.6508 37.9752 28.7008 36.7502 28.7008 35.1752V28.7002" stroke="white" stroke-width="1.5" stroke-linecap="round" stroke-linejoin="round"/>
<path d="M28.7 13.3002H35.175C36.575 13.3002 37.8 14.3502 38.15 15.7502C38.675 19.2502 38.675 22.7502 38.15 26.2502C37.975 27.6502 36.75 28.7002 35.175 28.7002H21" stroke="white" stroke-width="1.5" stroke-linecap="round" stroke-linejoin="round"/>
<path d="M21.0008 13.3002H6.82578C5.42578 13.3002 4.20078 14.3502 3.85078 15.7502C3.32578 19.2502 3.32578 22.7502 3.85078 26.2502C4.02578 27.6502 5.25078 28.7002 6.82578 28.7002H13.3008" stroke="white" stroke-width="1.5" stroke-linecap="round" stroke-linejoin="round"/>
<path d="M17.5 8.48767V8.48767" stroke="white" stroke-width="1.5" stroke-linecap="round" stroke-linejoin="round"/>
<path d="M24.5 33.5123V33.5123" stroke="white" stroke-width="1.5" stroke-linecap="round" stroke-linejoin="round"/>
</svg>
