<svg width="42" height="43" viewBox="0 0 42 43" fill="none" xmlns="http://www.w3.org/2000/svg">
<path d="M24.4129 21.4883C24.4129 23.4185 22.8867 24.9802 21.0004 24.9802C19.1141 24.9802 17.5879 23.4185 17.5879 21.4883C17.5879 19.5581 19.1141 17.9965 21.0004 17.9965C22.8867 17.9965 24.4129 19.5581 24.4129 21.4883Z" fill="white"/>
<path d="M20.9992 25.2488C18.9732 25.2488 17.3242 23.562 17.3242 21.4884C17.3242 19.4147 18.9732 17.7279 20.9992 17.7279C23.0252 17.7279 24.6742 19.4147 24.6742 21.4884C24.6742 23.562 23.0252 25.2488 20.9992 25.2488ZM20.9992 18.2651C19.262 18.2651 17.8492 19.7107 17.8492 21.4884C17.8492 23.266 19.262 24.7116 20.9992 24.7116C22.7364 24.7116 24.1492 23.266 24.1492 21.4884C24.1492 19.7107 22.7364 18.2651 20.9992 18.2651Z" fill="white"/>
<path d="M12.8481 40.5609C11.9498 40.5609 11.1318 40.3503 10.4163 39.9355C9.21927 39.2409 8.39187 38.044 7.95612 36.3792C7.44949 34.4415 7.50987 31.8677 8.13042 28.9238C3.12612 27.1623 0.261719 24.4596 0.261719 21.4883C0.261719 18.5165 3.12559 15.8143 8.12989 14.0533C7.50934 11.1089 7.44844 8.53512 7.95507 6.59741C8.39082 4.93206 9.21822 3.73516 10.4147 3.04108C11.1297 2.62636 11.9482 2.41577 12.8465 2.41577C15.1502 2.41577 18.0393 3.88235 21.0003 6.55121C23.9613 3.88504 26.8493 2.41953 29.1504 2.41953C30.0486 2.41953 30.8666 2.63012 31.5822 3.04484C32.7776 3.73838 33.6055 4.93313 34.0413 6.59633C34.5484 8.53351 34.4875 11.1078 33.8664 14.0528C38.8718 15.8138 41.7367 18.5165 41.7367 21.4883C41.7367 24.4602 38.8718 27.1629 33.8664 28.9244C34.487 31.8688 34.5479 34.4426 34.0407 36.3798C33.605 38.0435 32.7781 39.2382 31.5837 39.9318C30.8676 40.3465 30.0492 40.5571 29.1514 40.5571C26.8488 40.5571 23.9597 39.0916 20.9997 36.4265C18.0387 39.0948 15.1502 40.5609 12.8481 40.5609ZM10.1511 29.5497C9.63087 32.0837 9.57259 34.2486 9.98524 35.8237C10.2698 36.9121 10.7628 37.6669 11.4521 38.0666C11.8474 38.296 12.3173 38.4126 12.8481 38.4126C14.6299 38.4126 16.9756 37.1866 19.4741 34.9545C18.222 33.6642 16.9998 32.2035 15.8369 30.608C13.8256 30.3845 11.9146 30.0289 10.1511 29.5497ZM22.5249 34.9535C25.0228 37.1834 27.369 38.4083 29.1509 38.4088C29.6817 38.4088 30.1515 38.2922 30.5479 38.0628C31.2351 37.6642 31.7271 36.9111 32.0111 35.8243C32.4237 34.2481 32.366 32.0837 31.8457 29.5502C30.0807 30.0294 28.1691 30.385 26.1584 30.6085C24.996 32.204 23.7754 33.6642 22.5249 34.9535ZM18.6714 30.832C19.4337 31.7861 20.2138 32.6762 20.9992 33.4858C21.7825 32.6768 22.5632 31.7866 23.325 30.832C22.5422 30.8701 21.7626 30.8895 20.9992 30.8895C20.2353 30.8895 19.4552 30.8701 18.6714 30.832ZM16.9824 28.5682C18.2923 28.6826 19.6431 28.7406 20.9992 28.7406C22.3563 28.7406 23.7056 28.6826 25.0134 28.5687C25.7935 27.4492 26.5374 26.2759 27.2257 25.0796C27.8914 23.9219 28.5177 22.7137 29.0879 21.4878C28.5193 20.2651 27.8935 19.0574 27.2262 17.8971C26.5395 16.7034 25.7956 15.5301 25.0134 14.4079C23.7066 14.294 22.3574 14.236 20.9992 14.236C19.6405 14.236 18.2907 14.294 16.9845 14.4084C16.2023 15.5291 15.4573 16.7023 14.7696 17.8976C14.1028 19.0574 13.477 20.2651 12.9079 21.4894C13.476 22.711 14.1018 23.9186 14.769 25.0801C15.4536 26.27 16.1976 27.4427 16.9824 28.5682ZM30.182 24.0556C29.8113 24.7787 29.427 25.4878 29.0349 26.169C28.6395 26.8577 28.219 27.5486 27.7822 28.2298C29.0286 28.0331 30.2208 27.7812 31.337 27.4777C31.0272 26.3769 30.6393 25.2289 30.182 24.0556ZM10.6588 27.4771C11.7755 27.7801 12.9672 28.0326 14.212 28.2292C13.7726 27.5437 13.3521 26.8523 12.9594 26.169C12.5682 25.4884 12.1834 24.7803 11.8133 24.0572C11.3581 25.2251 10.9707 26.3721 10.6588 27.4771ZM31.4026 21.4883C32.2048 23.31 32.8584 25.1107 33.3493 26.8481C37.2354 25.4492 39.6367 23.4083 39.6367 21.4883C39.6367 19.5683 37.2354 17.5275 33.3493 16.1286C32.8595 17.8659 32.2053 19.6666 31.4026 21.4883ZM8.64702 16.1297C4.76254 17.528 2.36172 19.5689 2.36172 21.4883C2.36172 23.4083 4.76254 25.4492 8.64807 26.8475C9.13842 25.1096 9.79204 23.3089 10.5932 21.4894C9.79152 19.6693 9.13789 17.8686 8.64702 16.1297ZM10.6583 15.4995C10.9701 16.6029 11.3576 17.7504 11.8133 18.9205C12.1829 18.1995 12.5672 17.4909 12.9599 16.8081C13.3547 16.1211 13.7752 15.4302 14.2136 14.7474C12.9672 14.9435 11.7755 15.196 10.6583 15.4995ZM27.7833 14.7469C28.2227 15.4329 28.6432 16.1237 29.0359 16.8081C29.4276 17.4888 29.8124 18.1974 30.183 18.9205C30.6393 17.7509 31.0267 16.6035 31.3386 15.499C30.2203 15.1954 29.0286 14.943 27.7833 14.7469ZM12.8465 4.56461C12.3157 4.56461 11.8464 4.68065 11.4516 4.91057C10.7628 5.31026 10.2693 6.06503 9.98419 7.15342C9.57207 8.73013 9.62982 10.8945 10.1506 13.4275C11.9146 12.9483 13.8267 12.5921 15.8385 12.3686C17.0024 10.7726 18.2246 9.313 19.4751 8.0237C16.9761 5.79052 14.6289 4.56461 12.8465 4.56461ZM26.1589 12.3681C28.1697 12.5916 30.0812 12.9472 31.8462 13.4264C32.367 10.8929 32.4253 8.72798 32.0121 7.15181C31.7276 6.06557 31.2351 5.3124 30.5474 4.91379C30.1515 4.68441 29.6817 4.56783 29.1504 4.56783C27.369 4.56783 25.0239 5.79321 22.5254 8.0237C23.7749 9.31246 24.996 10.7726 26.1589 12.3681ZM20.9992 12.0872C21.7626 12.0872 22.5422 12.1065 23.3255 12.1446C22.5642 11.1916 21.7841 10.302 21.0003 9.49189C20.2143 10.3031 19.4347 11.1927 18.6735 12.1446C19.4562 12.1065 20.2359 12.0872 20.9992 12.0872Z" fill="white"/>
<path d="M12.8473 2.68438C15.2066 2.68438 18.0952 4.24766 21.0016 6.9106C23.9074 4.2498 26.7944 2.68814 29.1517 2.68814C30.0037 2.68814 30.7786 2.8869 31.4543 3.27853C32.5862 3.935 33.3716 5.07442 33.7885 6.66617C34.3539 8.77042 34.2352 11.3614 33.5606 14.2301C38.4022 15.8852 41.475 18.4966 41.475 21.4883C41.475 24.48 38.4022 27.0914 33.5601 28.7471C34.2641 31.8484 34.3822 34.5092 33.7879 36.3105C33.3711 37.9017 32.5862 39.0416 31.4554 39.6981C30.7786 40.0903 30.1639 40.2906 29.3123 40.2906C29.3118 40.2906 29.0939 40.2906 29.0934 40.2906C26.7351 40.2906 23.9053 38.7274 21 36.0676C18.0941 38.73 15.2066 40.2923 12.8483 40.2923C11.9962 40.2923 11.2213 40.0935 10.5457 39.7019C9.41272 39.0438 8.6268 37.9027 8.21047 36.3099C7.58572 34.3131 7.71172 31.6883 8.43832 28.7466C3.5973 27.0909 0.525 24.48 0.525 21.4883C0.525 18.4971 3.5973 15.8858 8.4378 14.2301C8.07712 12.5868 7.84665 11.0611 7.83877 9.66971C7.83247 8.57058 7.97895 7.54827 8.20995 6.66671C8.6268 5.07335 9.4122 3.93231 10.5451 3.27477C11.2203 2.88261 11.9952 2.68438 12.8473 2.68438ZM9.95295 13.76C11.7784 13.247 13.8054 12.8591 15.9815 12.6227C17.2321 10.8983 18.5409 9.34792 19.8592 8.01134C17.3014 5.67663 14.8108 4.29547 12.8473 4.29547C12.2703 4.29547 11.7579 4.42332 11.3227 4.67635C10.5703 5.1131 10.0354 5.92267 9.7314 7.08358C9.28095 8.80373 9.38332 11.1288 9.95295 13.76ZM32.0455 13.7595C32.6151 11.1282 32.7175 8.80265 32.267 7.08251C31.9636 5.92375 31.4286 5.11579 30.6778 4.68011C30.2421 4.42708 29.7281 4.29923 29.1517 4.29923C27.1897 4.29923 24.7007 5.67878 22.1434 8.01134C23.4612 9.34792 24.7684 10.8983 26.0179 12.6222C28.193 12.8586 30.22 13.2464 32.0455 13.7595ZM18.1004 12.4449C19.0465 12.3875 19.9951 12.3375 20.9816 12.3375C21.9681 12.3375 22.953 12.388 23.899 12.4449C22.9498 11.2206 21.9754 10.1022 21.0005 9.11209C20.0256 10.1022 19.0507 11.2206 18.1004 12.4449ZM21 29.0092C22.4495 29.0092 23.8371 28.9442 25.1569 28.8255C25.9544 27.6882 26.7256 26.4806 27.4522 25.216C28.1626 23.981 28.8052 22.7309 29.379 21.4883C28.8052 20.2458 28.1626 18.9962 27.4528 17.7617C26.7256 16.4966 25.9549 15.2895 25.1569 14.1522C23.8376 14.0324 22.45 13.9674 21 13.9674C19.5499 13.9674 18.1619 14.0324 16.842 14.1516C16.0435 15.2889 15.2717 16.4966 14.5446 17.7612C13.8348 18.9962 13.1922 20.2463 12.6184 21.4889C13.1922 22.7314 13.8343 23.981 14.5441 25.2155C15.2712 26.4801 16.0424 27.6877 16.8404 28.825C18.1608 28.9442 19.5494 29.0092 21 29.0092ZM30.2116 19.5613C30.8023 18.106 31.291 16.6771 31.6638 15.3104C30.3235 14.9333 28.843 14.6217 27.2391 14.3934C27.7788 15.2137 28.3043 16.0641 28.8099 16.9441C29.3107 17.8138 29.7764 18.6884 30.2116 19.5613ZM11.7857 19.5619C12.2204 18.6889 12.6866 17.8143 13.1864 16.9441C13.6925 16.0641 14.2186 15.2142 14.7588 14.3939C13.1549 14.6217 11.6744 14.9338 10.3341 15.3109C10.7068 16.6776 11.1956 18.106 11.7857 19.5619ZM33.1737 27.1946C37.4136 25.7247 39.9 23.5652 39.9 21.4883C39.9 19.4115 37.4136 17.2519 33.1737 15.7821C32.6734 17.6113 31.9825 19.5334 31.1157 21.4878C31.9825 23.4427 32.6734 25.3648 33.1737 27.1946ZM8.82525 27.194C9.32505 25.3654 10.0154 23.4432 10.8822 21.4894C10.0154 19.535 9.32452 17.6123 8.82472 15.7832C4.58535 17.253 2.1 19.412 2.1 21.4883C2.1 23.5652 4.58587 25.7242 8.82525 27.194ZM27.2391 28.5832C28.843 28.3555 30.3235 28.0439 31.6638 27.6662C31.2905 26.2996 30.8017 24.8706 30.2116 23.4147C29.7764 24.2877 29.3102 25.1623 28.8099 26.0326C28.3043 26.9125 27.7788 27.7629 27.2391 28.5832ZM14.7572 28.5827C14.2175 27.7624 13.692 26.9125 13.1859 26.0331C12.6861 25.1634 12.2204 24.2893 11.7857 23.4169C11.1956 24.8717 10.7074 26.3001 10.3346 27.6662C11.6744 28.0428 13.1544 28.3544 14.7572 28.5827ZM12.8488 38.6806C14.8118 38.6806 17.3014 37.3 19.8586 34.9664C18.5393 33.6292 17.231 32.0783 15.9799 30.3533C13.8049 30.1175 11.7789 29.7296 9.954 29.2166C9.3849 31.8479 9.28252 34.1729 9.73245 35.893C10.0359 37.0534 10.5714 37.863 11.3232 38.2997C11.7579 38.5528 12.2719 38.6806 12.8488 38.6806ZM29.1517 38.6774C29.7286 38.6774 30.2416 38.5495 30.6778 38.2965C31.4286 37.8608 31.9625 37.0529 32.2654 35.8936C32.7159 34.1729 32.6135 31.8479 32.0444 29.2171C30.219 29.7302 28.1925 30.118 26.0169 30.3539C24.7674 32.0783 23.4596 33.6287 22.1419 34.9658C24.6991 37.2973 27.1887 38.6769 29.1517 38.6774ZM21 33.8656C21.9749 32.875 22.9493 31.756 23.899 30.5317C22.9535 30.5892 22.0306 30.7106 21.0436 30.7106C20.056 30.7106 19.0449 30.5892 18.0988 30.5317C19.0491 31.7565 20.0245 32.8755 21 33.8656ZM12.6609 2.18746C11.7164 2.18746 11.0413 2.36903 10.2863 2.80686C9.02685 3.538 8.15745 4.7897 7.7028 6.52757C7.1988 8.45454 7.24237 10.9875 7.8267 13.8771C2.84497 15.6805 0 18.4397 0 21.4883C0 24.5375 2.8455 27.2961 7.82722 29.0995C7.2429 31.9891 7.19932 34.5221 7.70385 36.4491C8.15797 38.1859 9.02685 39.4376 10.2874 40.1698C11.0434 40.6081 11.9516 40.7945 12.8956 40.7945C15.2512 40.7945 18.0159 39.4327 21.0005 36.7837C23.9846 39.43 26.796 40.8257 29.1511 40.8262C30.0956 40.8262 30.9577 40.6044 31.7137 40.166C32.9721 39.4359 33.8404 38.1859 34.2946 36.4501C34.7991 34.5226 34.7555 31.9897 34.1712 29.1006C39.154 27.2966 42 24.5375 42 21.4883C42 18.4391 39.1545 15.68 34.1717 13.8766C34.7566 10.9864 34.7996 8.45347 34.2951 6.5265C33.8404 4.79077 32.9716 3.54069 31.7126 2.81062C30.9571 2.3728 30.0951 2.15039 29.1511 2.15039C26.7965 2.15039 23.9857 3.5466 21.001 6.19397C18.0159 3.54445 15.1914 2.18585 12.8352 2.18585L12.6609 2.18746ZM10.353 13.0955C10.1104 11.847 9.9477 10.677 9.93877 9.65091C9.9309 8.72691 10.0548 7.9227 10.238 7.22218C10.5042 6.20578 10.9562 5.50634 11.5815 5.14318C11.9364 4.9369 12.369 4.79722 12.8536 4.79722C14.5236 4.79722 16.7212 5.96726 19.0921 8.03874C17.9261 9.25982 16.7863 10.6276 15.6975 12.1135C13.8154 12.3284 12.0209 12.6577 10.353 13.0955ZM22.9099 8.03982C25.2803 5.96995 27.4832 4.83644 29.1511 4.83644C29.6362 4.83644 30.0631 4.94119 30.4185 5.14748C31.0427 5.50956 31.4942 6.2074 31.7599 7.22165C32.2187 8.7355 32.1594 10.7479 31.6454 13.095C29.9775 12.6577 28.1836 12.3278 26.302 12.114C25.2136 10.6286 24.0749 9.26089 22.9099 8.03982ZM19.2533 11.8508C19.8287 11.1524 20.413 10.4916 21.0005 9.87492C21.588 10.4916 22.1718 11.1524 22.7467 11.8508C22.1592 11.8293 21.5749 11.8185 21 11.8185C20.4251 11.8185 19.8413 11.8293 19.2533 11.8508ZM17.1281 14.6658C18.3907 14.5589 19.6917 14.4826 21 14.4826C22.3078 14.4826 23.6087 14.5589 24.8708 14.6658C25.6226 15.7504 26.3387 16.8823 27.0002 18.0335C27.6418 19.1498 28.246 20.3108 28.7973 21.4878C28.2455 22.6653 27.6412 23.8268 26.9997 24.9431C26.3377 26.0949 25.6221 27.2262 24.8703 28.3109C23.6087 28.4178 22.3078 28.5612 21 28.5612C19.6912 28.5612 18.3897 28.4172 17.1266 28.3103C16.3742 27.2262 15.6581 26.0943 14.9961 24.9426C14.3545 23.8268 13.7508 22.6659 13.1995 21.4883C13.7508 20.3108 14.3551 19.1493 14.9966 18.033C15.6592 16.8817 16.3758 15.7498 17.1281 14.6658ZM30.1465 18.278C29.8583 17.7311 29.5627 17.1939 29.263 16.6717C28.9637 16.1511 28.6503 15.6284 28.3258 15.109C29.2572 15.2712 30.1555 15.4651 31.0107 15.6891C30.7655 16.5304 30.4762 17.3964 30.1465 18.278ZM10.9872 15.6891C11.8424 15.4651 12.7407 15.2712 13.672 15.109C13.3471 15.6284 13.0336 16.1511 12.7344 16.6712C12.4346 17.1933 12.139 17.7305 11.8508 18.2774C11.5211 17.3969 11.2324 16.5309 10.9872 15.6891ZM31.6916 21.4878C32.4345 19.7891 33.0498 18.1077 33.5239 16.4778C37.1479 17.831 39.375 19.7268 39.375 21.4883C39.375 23.2498 37.1479 25.1456 33.5239 26.4989C33.0493 24.8684 32.4345 23.1864 31.6916 21.4878ZM8.47455 26.4983C4.85152 25.1451 2.625 23.2493 2.625 21.4883C2.625 19.7273 4.85153 17.8315 8.47403 16.4783C8.9481 18.1087 9.56287 19.7902 10.3057 21.4889C9.5634 23.187 8.94862 24.8684 8.47455 26.4983ZM28.3253 27.8682C28.6498 27.3482 28.9637 26.8255 29.2624 26.3055C29.5627 25.7833 29.8583 25.2456 30.1465 24.6987C30.4762 25.5802 30.765 26.4468 31.0107 27.2886C30.1549 27.5115 29.2567 27.706 28.3253 27.8682ZM10.9877 27.2875C11.2329 26.4462 11.5216 25.5808 11.8508 24.7003C12.1385 25.2466 12.4341 25.7838 12.7339 26.3055C13.0326 26.8255 13.346 27.3477 13.671 27.8677C12.7402 27.7049 11.8424 27.511 10.9877 27.2875ZM12.8488 38.1434C12.3637 38.1434 11.9374 38.0387 11.582 37.8324C10.9573 37.4692 10.5052 36.7703 10.2396 35.7539C9.80332 34.2255 9.85267 32.2126 10.354 29.8806C12.0214 30.3179 13.8148 30.6477 15.6959 30.8615C16.7853 32.3475 17.9251 33.7157 19.0916 34.9379C16.7213 37.0099 14.5178 38.144 12.8488 38.1434ZM26.3014 30.8626C28.183 30.6483 29.977 30.319 31.6449 29.8817C32.225 32.428 32.2707 34.4576 31.7588 35.7544C31.4937 36.7692 31.0427 37.4671 30.419 37.8286C30.0631 38.0349 29.6368 38.1397 29.1522 38.1397C27.4827 38.1397 25.2787 37.0061 22.9089 34.9374C24.0744 33.7163 25.2131 32.3485 26.3014 30.8626ZM21 33.1028C20.412 32.4861 19.8271 31.8248 19.2517 31.1259C19.8397 31.1473 20.4246 31.1581 21 31.1581C21.5749 31.1581 22.1592 31.1473 22.7467 31.1259C22.1718 31.8248 21.5875 32.4861 21 33.1028Z" fill="white"/>
</svg>
