<svg width="41" height="40" viewBox="0 0 41 40" fill="none" xmlns="http://www.w3.org/2000/svg">
<g clip-path="url(#clip0_214_313)">
<path d="M20.5006 1.59998C10.0866 1.59998 1.64062 9.83998 1.64062 20C1.64062 30.16 10.0866 38.4 20.5006 38.4C30.9146 38.4 39.3606 30.16 39.3606 20C39.3606 9.83998 30.9146 1.59998 20.5006 1.59998ZM20.5006 5.59998C23.9577 5.59998 27.1404 6.78261 29.6632 8.74373C29.0056 9.26054 28.6189 10.1093 28.6189 10.9594C28.6189 12.2394 29.3573 13.4403 30.1773 14.7203C30.8333 15.7603 31.4889 17.2003 31.4889 19.1203C31.4889 20.4803 31.0789 22.2403 30.2589 24.3203L28.6189 29.6797L22.714 12.4C23.698 12.32 24.6006 12.2406 24.6006 12.2406C25.4206 12.1606 25.3389 10.9594 24.5189 10.9594H24.4373C24.4373 10.9594 21.7309 11.2 20.0089 11.2C18.4509 11.2 15.6623 10.9594 15.6623 10.9594H15.5806C14.7606 10.9594 14.6789 12.2406 15.4989 12.2406C15.4989 12.2406 16.3186 12.32 17.2206 12.4L19.844 19.2797L16.2373 29.7594L10.2506 12.3203C11.2346 12.2403 12.1373 12.1594 12.1373 12.1594C12.9573 12.0794 12.874 10.8797 12.054 10.8797H11.9723C11.9723 10.8797 10.4465 11.0096 8.93735 11.0937C11.6467 7.75714 15.8247 5.59998 20.5006 5.59998ZM34.6008 15.7515C35.0293 17.0958 35.2606 18.5229 35.2606 20C35.2606 24.717 32.8947 28.9115 29.274 31.5422L33.5389 19.5203C34.1037 18.1429 34.4176 16.8917 34.6008 15.7515ZM6.25153 16.3187L12.1533 31.8531C8.28856 29.2495 5.74063 24.9025 5.74063 20C5.74063 18.7265 5.92955 17.4968 6.25153 16.3187ZM20.5006 21.2797L25.1564 33.65C23.6898 34.1297 22.1272 34.4 20.5006 34.4C18.9905 34.4 17.5319 34.1738 16.1572 33.7578L20.5006 21.2797Z" fill="white"/>
</g>
<defs>
<clipPath id="clip0_214_313">
<rect width="41" height="40" fill="white"/>
</clipPath>
</defs>
</svg>
