<svg width="42" height="42" viewBox="0 0 42 42" fill="none" xmlns="http://www.w3.org/2000/svg">
<path d="M15.75 38.5C7 38.5 3.5 35 3.5 26.25V15.75C3.5 7 7 3.5 15.75 3.5H26.25C35 3.5 38.5 7 38.5 15.75V26.25C38.5 35 35 38.5 26.25 38.5H15.75Z" stroke="white" stroke-width="1.5" stroke-linecap="round" stroke-linejoin="round"/>
<path d="M13.125 28V14H16.625C18.55 14 20.125 15.575 20.125 17.5C20.125 19.425 18.55 21 16.625 21H13.125" stroke="white" stroke-width="1.5" stroke-linecap="round" stroke-linejoin="round"/>
<path d="M28.875 19.25H26.6C25.375 19.25 24.5 20.3 24.5 21.35C24.5 22.575 25.55 23.45 26.6 23.45C27.825 23.45 28.7 24.5 28.7 25.55C28.7 26.775 27.65 27.65 26.6 27.65H24.5" stroke="white" stroke-width="1.5" stroke-linecap="round" stroke-linejoin="round"/>
</svg>
